<svg width="15" height="15" viewBox="0 0 15 15" fill="none" xmlns="http://www.w3.org/2000/svg">
<path d="M6.33283 0.0913453C7.92164 -0.158956 9.54578 0.108786 10.967 0.849726L11.248 1.0042L11.3066 1.04148C11.5871 1.24342 11.6747 1.62918 11.4983 1.93503C11.3219 2.24085 10.944 2.35835 10.6288 2.21667L10.5669 2.18471L10.3365 2.05887C9.17378 1.45273 7.84508 1.23358 6.54528 1.43832C5.15883 1.65675 3.88894 2.344 2.94779 3.3852C2.00665 4.42645 1.45077 5.75905 1.3731 7.16041C1.29546 8.56186 1.70062 9.94797 2.52099 11.0868C3.34135 12.2256 4.52762 13.049 5.88143 13.4192C7.2352 13.7894 8.67525 13.6844 9.96093 13.1216C11.2468 12.5588 12.3008 11.5717 12.9472 10.3258C13.5531 9.15776 13.7664 7.82803 13.5597 6.53321L13.5125 6.27487L13.5025 6.20567C13.4681 5.86193 13.6987 5.54113 14.0445 5.47057C14.3905 5.40007 14.7287 5.60524 14.8315 5.93531L14.8488 6.00257L14.9061 6.31817C15.1586 7.90092 14.8977 9.526 14.157 10.9536C13.367 12.4764 12.0791 13.6828 10.5076 14.3707C8.93624 15.0585 7.1765 15.1866 5.52187 14.7342C3.86719 14.2817 2.41705 13.2757 1.41439 11.8838C0.411734 10.4919 -0.083392 8.79804 0.0114862 7.0852C0.106394 5.37234 0.786088 3.74368 1.9364 2.47102C3.0867 1.19842 4.63833 0.358321 6.33283 0.0913453Z" fill="#8C8D8B"/>
</svg>
