<svg width="16" height="16" viewBox="0 0 16 16" fill="none" xmlns="http://www.w3.org/2000/svg">
<path d="M4.65967 4.00997L4.65967 1.32997C4.65967 0.959946 4.95964 0.659973 5.32967 0.659973C5.6997 0.659973 5.99967 0.959946 5.99967 1.32997L5.99967 4.00997C5.99967 4.38 5.6997 4.67997 5.32967 4.67997C4.95964 4.67997 4.65967 4.38 4.65967 4.00997Z" fill="currentColor"/>
<path d="M10 4.00997V1.32997C10 0.959946 10.3 0.659973 10.67 0.659973C11.04 0.659973 11.34 0.959946 11.34 1.32997V4.00997C11.34 4.38 11.04 4.67997 10.67 4.67997C10.3 4.67997 10 4.38 10 4.00997Z" fill="currentColor"/>
<path d="M13.3598 3.97997C13.3598 3.60994 13.0598 3.30997 12.6898 3.30997L3.3098 3.30997C2.93978 3.30997 2.6398 3.60994 2.6398 3.97997L2.6398 13.36C2.6398 13.73 2.93978 14.03 3.3098 14.03L12.6898 14.03C13.0598 14.03 13.3598 13.73 13.3598 13.36L13.3598 3.97997ZM14.6998 13.36C14.6998 14.4701 13.7999 15.37 12.6898 15.37L3.3098 15.37C2.19972 15.37 1.2998 14.4701 1.2998 13.36L1.2998 3.97997C1.2998 2.86988 2.19972 1.96997 3.3098 1.96997L12.6898 1.96997C13.7999 1.96997 14.6998 2.86988 14.6998 3.97997L14.6998 13.36Z" fill="currentColor"/>
<path d="M14.0298 6C14.3998 6 14.6998 6.29997 14.6998 6.67C14.6998 7.04004 14.3998 7.34 14.0298 7.34L1.9698 7.34C1.59978 7.34 1.2998 7.04004 1.2998 6.67C1.2998 6.29997 1.59978 6 1.9698 6L14.0298 6Z" fill="currentColor"/>
<path d="M5.34647 8.65997L5.41516 8.66326C5.75301 8.69756 6.01647 8.98305 6.01647 9.32997C6.01647 9.6769 5.75301 9.96239 5.41516 9.99669L5.34647 9.99997H5.33992C4.96989 9.99997 4.66992 9.70001 4.66992 9.32997C4.66992 8.95993 4.96989 8.65997 5.33992 8.65997H5.34647Z" fill="currentColor"/>
<path d="M8.00616 8.65997L8.07483 8.66326C8.41264 8.69756 8.67616 8.98305 8.67616 9.32997C8.67616 9.6769 8.41264 9.96239 8.07483 9.99669L8.00616 9.99997H7.99959C7.62955 9.99997 7.32959 9.70001 7.32959 9.32997C7.32959 8.95993 7.62955 8.65997 7.99959 8.65997H8.00616Z" fill="currentColor"/>
<path d="M10.6766 8.65997L10.7452 8.66326C11.0831 8.69756 11.3466 8.98305 11.3466 9.32997C11.3466 9.6769 11.0831 9.96239 10.7452 9.99669L10.6766 9.99997H10.67C10.3 9.99997 10 9.70001 10 9.32997C10 8.95993 10.3 8.65997 10.67 8.65997H10.6766Z" fill="currentColor"/>
<path d="M5.34647 11.33L5.41516 11.3332C5.75301 11.3675 6.01647 11.653 6.01647 12C6.01647 12.3469 5.75301 12.6324 5.41516 12.6667L5.34647 12.67H5.33992C4.96989 12.67 4.66992 12.37 4.66992 12C4.66992 11.6299 4.96989 11.33 5.33992 11.33H5.34647Z" fill="currentColor"/>
<path d="M8.00616 11.33L8.07483 11.3332C8.41264 11.3675 8.67616 11.653 8.67616 12C8.67616 12.3469 8.41264 12.6324 8.07483 12.6667L8.00616 12.67H7.99959C7.62955 12.67 7.32959 12.37 7.32959 12C7.32959 11.6299 7.62955 11.33 7.99959 11.33H8.00616Z" fill="currentColor"/>
<path d="M10.6766 11.33L10.7452 11.3332C11.0831 11.3675 11.3466 11.653 11.3466 12C11.3466 12.3469 11.0831 12.6324 10.7452 12.6667L10.6766 12.67H10.67C10.3 12.67 10 12.37 10 12C10 11.6299 10.3 11.33 10.67 11.33H10.6766Z" fill="currentColor"/>
</svg>
