<?xml version="1.0" encoding="utf-8" ?>
<svg xmlns="http://www.w3.org/2000/svg" xmlns:xlink="http://www.w3.org/1999/xlink" width="768" height="119.0244" viewBox="0 0 768 119.0244">
	<path d="M0 40.3813L46.08 31.6158C92.16 23.1781 184.32 5.15565 276.48 1.05965C368.64 -3.03635 460.8 5.15565 552.96 18.5086C645.12 31.3701 737.28 49.3925 829.44 44.723C921.6 40.3813 1013.76 14.1669 1105.92 5.40141C1198.08 -3.03635 1290.24 5.15565 1336.32 9.82509L1382.4 14.1669L1382.4 119.024L1336.32 119.024L1105.92 119.024L829.44 119.024L552.96 119.024L276.48 119.024L46.08 119.024L0 119.024L0 40.3813Z" fill-rule="nonzero" transform="matrix(1 0 0 1 0 0)" fill="rgb(146, 122, 244)" fill-opacity="0.3"/>
</svg>
