<svg width="14" height="15" viewBox="0 0 14 15" fill="none" xmlns="http://www.w3.org/2000/svg">
<path d="M7.66187 2.04546C7.66187 1.86462 7.59001 1.69126 7.4621 1.56339C7.33426 1.43558 7.1608 1.36364 6.98005 1.36364L6.68039 1.36364C6.49964 1.36364 6.32619 1.43558 6.19835 1.56339C6.07051 1.69126 5.99857 1.86462 5.99857 2.04546V2.16863C5.99823 2.52733 5.90312 2.88015 5.7236 3.1907C5.54414 3.5011 5.28639 3.75915 4.97587 3.93844L4.97521 3.93777L4.68424 4.10755L4.68224 4.10889C4.37137 4.28831 4.01845 4.38255 3.65951 4.38255C3.30055 4.38251 2.94765 4.28837 2.63679 4.10889L2.55489 4.06494L2.53492 4.05429C2.37847 3.96406 2.1927 3.93972 2.01822 3.98638C1.86545 4.02723 1.73222 4.11944 1.64069 4.24672L1.60407 4.30331L1.45425 4.56233C1.36459 4.71847 1.34055 4.90369 1.38701 5.07769C1.42784 5.2304 1.52014 5.36369 1.64735 5.45522L1.70395 5.49184L1.74057 5.51447L1.84244 5.58239C2.13506 5.75965 2.3787 6.00667 2.55089 6.3028C2.73031 6.61146 2.82572 6.96191 2.82788 7.31891V7.6678L2.82388 7.80232C2.80447 8.11596 2.7134 8.42169 2.55622 8.69516C2.37848 9.00444 2.12229 9.26094 1.81447 9.44094L1.81514 9.44162L1.7126 9.50285L1.70395 9.50817C1.54765 9.59871 1.43366 9.74783 1.38701 9.9223C1.34055 10.0963 1.36459 10.2816 1.45425 10.4377L1.6034 10.6967C1.69393 10.853 1.84374 10.967 2.01822 11.0136C2.1927 11.0603 2.37847 11.0359 2.53492 10.9457L2.55489 10.9351L2.63679 10.8911L2.75531 10.8279C3.03599 10.6895 3.34539 10.6175 3.65951 10.6175C3.97357 10.6175 4.28307 10.6896 4.56372 10.8279L4.68224 10.8911L4.68424 10.8925L4.97521 11.0616C5.28573 11.2409 5.54414 11.4989 5.7236 11.8093C5.90312 12.1199 5.99823 12.4726 5.99857 12.8313V12.9546C5.99857 13.1354 6.07051 13.3088 6.19835 13.4366C6.32619 13.5644 6.49964 13.6364 6.68039 13.6364H6.98005C7.1608 13.6364 7.33426 13.5644 7.4621 13.4366C7.59001 13.3088 7.66187 13.1354 7.66187 12.9546V12.8313L7.66651 12.6969C7.68737 12.385 7.77983 12.081 7.93685 11.8093C8.09387 11.5377 8.31096 11.3065 8.57074 11.1328L8.6846 11.0616L8.97621 10.8925L8.97826 10.8911L9.09676 10.8279C9.37739 10.6896 9.68687 10.6175 10.001 10.6175C10.3599 10.6175 10.7128 10.7116 11.0237 10.8911L11.1256 10.9457C11.282 11.0359 11.4678 11.0603 11.6423 11.0136C11.8167 10.967 11.9659 10.853 12.0564 10.6967L12.2022 10.4377L12.2056 10.4324L12.2362 10.3718C12.3006 10.2291 12.3143 10.0676 12.2735 9.91501C12.2268 9.7406 12.1127 9.59203 11.9565 9.50148L11.8753 9.45826C11.8686 9.45471 11.8619 9.45137 11.8553 9.44755C11.5432 9.26735 11.2838 9.00771 11.1042 8.69516C10.9246 8.38269 10.8312 8.02821 10.8326 7.6678V7.32955C10.8316 6.9701 10.9251 6.6165 11.1042 6.30485C11.2819 5.99563 11.5376 5.73838 11.8453 5.55842L11.9479 5.49716L11.9565 5.49184L12.0131 5.45522C12.1403 5.36369 12.2326 5.2304 12.2735 5.07769C12.3199 4.90369 12.2959 4.71847 12.2062 4.56233L12.0564 4.30265C11.9659 4.14636 11.8167 4.03304 11.6423 3.98638C11.4895 3.94555 11.3283 3.95914 11.1855 4.02366L11.1256 4.05429C11.119 4.05806 11.1122 4.0614 11.1056 4.06494L11.023 4.10822L11.0237 4.10889C10.7128 4.28837 10.3599 4.38251 10.001 4.38255C9.64201 4.38255 9.2891 4.28831 8.97826 4.10889L8.97621 4.10755L8.6846 3.93777C8.3741 3.75848 8.11637 3.5011 7.93685 3.1907C7.75733 2.88015 7.66221 2.52733 7.66187 2.16863V2.04546ZM9.02551 2.1673L9.03151 2.25653C9.04324 2.34487 9.07249 2.43056 9.11742 2.50821C9.16228 2.58584 9.2218 2.65374 9.29251 2.70797L9.36839 2.75857L9.6594 2.9277C9.76296 2.98746 9.88133 3.01891 10.001 3.01891C10.1206 3.01887 10.2383 2.98749 10.3419 2.9277L10.3619 2.91637L10.4637 2.86178C10.929 2.60009 11.4782 2.53067 11.9945 2.66868C12.4525 2.79115 12.8518 3.06826 13.1264 3.44971L13.2363 3.6195L13.3861 3.87917L13.3868 3.87984L13.4793 4.05962C13.6728 4.48783 13.7136 4.972 13.5912 5.42992C13.4521 5.95012 13.1127 6.39362 12.6484 6.66573L12.649 6.66635L12.5371 6.73364C12.4331 6.79371 12.3466 6.8805 12.2868 6.98462C12.227 7.08873 12.1958 7.20682 12.1962 7.32689V7.67312C12.1958 7.79319 12.227 7.91128 12.2868 8.01539C12.3457 8.11794 12.4306 8.2031 12.5325 8.26303L12.619 8.30967L12.6404 8.32166L12.8101 8.43151C13.1914 8.70607 13.4687 9.10494 13.5912 9.56278C13.7305 10.084 13.6573 10.6388 13.3894 11.1068L13.3901 11.1075L13.2402 11.3738L13.2363 11.3805C12.9646 11.8494 12.5179 12.1913 11.9945 12.3313C11.4781 12.4694 10.929 12.3987 10.4637 12.1369V12.1382L10.3619 12.0837C10.3552 12.0801 10.3484 12.0761 10.3419 12.0723C10.2383 12.0126 10.1206 11.9811 10.001 11.9811C9.88133 11.9811 9.76365 12.0126 9.66008 12.0723L9.6594 12.0717L9.36839 12.2414L9.29251 12.292C9.2218 12.3463 9.16228 12.4141 9.11742 12.4918C9.05755 12.5953 9.02564 12.7131 9.02551 12.8327V12.9546C9.02551 13.4969 8.81039 14.0172 8.42694 14.4008C8.04335 14.7844 7.52251 15 6.98005 15H6.68039C6.13794 15 5.61717 14.7844 5.23355 14.4008C4.85011 14.0172 4.63496 13.4969 4.63496 12.9546V12.8327L4.62897 12.7435C4.61724 12.6552 4.58797 12.5695 4.54308 12.4918C4.49817 12.4141 4.43868 12.3463 4.36796 12.292L4.29206 12.2414L4.00042 12.0717C3.89682 12.0119 3.77913 11.9811 3.65951 11.9811C3.56985 11.9811 3.48148 11.999 3.39917 12.033L3.3186 12.0723C3.31205 12.0761 3.3053 12.0801 3.29863 12.0837L3.19676 12.1382L3.19609 12.1369C2.73088 12.3985 2.18216 12.4693 1.66599 12.3313C1.20799 12.2088 0.808633 11.9318 0.534064 11.5503L0.424203 11.3805L0.274394 11.1208L0.273725 11.1202C0.00305012 10.6509 -0.0705385 10.0934 0.0693093 9.57007C0.208393 9.04998 0.547196 8.60571 1.01147 8.33366L1.12333 8.26637L1.19791 8.21646C1.26891 8.16191 1.32878 8.09353 1.37369 8.01539C1.43348 7.91128 1.46472 7.79319 1.46424 7.67312V7.32689L1.45825 7.23832C1.4462 7.15044 1.41657 7.06514 1.37169 6.98796C1.32682 6.91091 1.2676 6.84341 1.19724 6.78955L1.12333 6.74025L1.08605 6.717L0.984174 6.6491C0.534323 6.37569 0.205578 5.93951 0.0693093 5.42992C-0.0705385 4.90656 0.00305695 4.3491 0.273725 3.87984L0.274394 3.87851L0.424203 3.6195L0.534064 3.44971C0.808633 3.06826 1.20799 2.79115 1.66599 2.66868C2.18206 2.53071 2.73094 2.60099 3.19609 2.86244L3.19676 2.86178L3.29863 2.91637L3.3186 2.9277L3.39917 2.96697C3.48148 3.00105 3.56985 3.01887 3.65951 3.01891C3.74931 3.01891 3.83809 3.00111 3.92052 2.96697L4.00042 2.9277L4.29206 2.75857L4.36796 2.70797C4.43868 2.65374 4.49817 2.58584 4.54308 2.50821C4.60284 2.40484 4.63476 2.28737 4.63496 2.16797V2.04546C4.63496 1.50308 4.85011 0.982828 5.23355 0.599257C5.61717 0.215659 6.13794 0 6.68039 0L6.98005 0C7.52251 0 8.04335 0.215659 8.42694 0.599257C8.81039 0.982828 9.02551 1.50308 9.02551 2.04546V2.1673Z" fill="#8C8D8B"/>
</svg>
