<svg width="16" height="16" viewBox="0 0 16 16" fill="none" xmlns="http://www.w3.org/2000/svg">
<path d="M8.81715 2.64C8.81715 2.46231 8.74653 2.29195 8.62084 2.16629C8.49521 2.0407 8.32476 1.97 8.14715 1.97L7.85268 1.97C7.67506 1.97 7.50462 2.0407 7.37899 2.16629C7.25337 2.29195 7.18268 2.46231 7.18268 2.64V2.76105C7.18235 3.11353 7.08888 3.46023 6.91247 3.7654C6.73613 4.07041 6.48285 4.32399 6.17771 4.50017L6.17706 4.49952L5.89113 4.66636L5.88917 4.66767C5.58368 4.84398 5.23688 4.93658 4.88417 4.93658C4.53142 4.93654 4.18465 4.84404 3.87917 4.66767L3.79869 4.62448L3.77906 4.61402C3.62532 4.52535 3.44277 4.50143 3.27132 4.54728C3.1212 4.58743 2.99028 4.67804 2.90034 4.80311L2.86435 4.85872L2.71713 5.11325C2.62903 5.26669 2.6054 5.4487 2.65105 5.61968C2.69118 5.76974 2.78187 5.90072 2.90688 5.99066L2.9625 6.02665L2.99848 6.04889L3.09859 6.11563C3.38613 6.28982 3.62556 6.53255 3.79476 6.82355C3.97107 7.12686 4.06483 7.47124 4.06695 7.82205V8.16489L4.06302 8.29708C4.04394 8.60528 3.95445 8.90571 3.8 9.17445C3.62534 9.47836 3.37359 9.73041 3.07111 9.90729L3.07176 9.90796L2.971 9.96813L2.9625 9.97336C2.80891 10.0623 2.6969 10.2089 2.65105 10.3803C2.6054 10.5513 2.62903 10.7333 2.71713 10.8868L2.86369 11.1413C2.95265 11.2949 3.09987 11.4069 3.27132 11.4527C3.44277 11.4985 3.62532 11.4746 3.77906 11.386L3.79869 11.3755L3.87917 11.3323L3.99563 11.2702C4.27145 11.1342 4.57548 11.0634 4.88417 11.0634C5.19278 11.0634 5.49691 11.1343 5.7727 11.2702L5.88917 11.3323L5.89113 11.3337L6.17706 11.4998C6.48219 11.676 6.73613 11.9296 6.91247 12.2346C7.08888 12.5398 7.18235 12.8864 7.18268 13.2389L7.18268 13.36C7.18268 13.5377 7.25337 13.7081 7.37899 13.8337C7.50462 13.9593 7.67506 14.03 7.85268 14.03H8.14715C8.32476 14.03 8.49521 13.9593 8.62084 13.8337C8.74653 13.7081 8.81715 13.5377 8.81715 13.36V13.2389L8.8217 13.1068C8.8422 12.8003 8.93306 12.5016 9.08736 12.2346C9.24166 11.9677 9.45499 11.7405 9.71026 11.5698L9.82215 11.4998L10.1087 11.3337L10.1107 11.3323L10.2272 11.2702C10.5029 11.1343 10.807 11.0634 11.1157 11.0634C11.4684 11.0634 11.8152 11.156 12.1207 11.3323L12.2208 11.386C12.3745 11.4746 12.5571 11.4985 12.7285 11.4527C12.9 11.4069 13.0465 11.2949 13.1355 11.1413L13.2788 10.8868L13.2821 10.8815L13.3122 10.822C13.3755 10.6817 13.3889 10.5231 13.3488 10.3731C13.3029 10.2018 13.1908 10.0558 13.0373 9.96679L12.9575 9.92431C12.951 9.92083 12.9443 9.91754 12.9379 9.91379C12.6312 9.73671 12.3763 9.48158 12.1998 9.17445C12.0234 8.86739 11.9315 8.51905 11.9329 8.16489V7.83251C11.932 7.47928 12.0238 7.13182 12.1998 6.82556C12.3744 6.52171 12.6257 6.26892 12.9281 6.09207L13.0288 6.03188L13.0373 6.02665L13.093 5.99066C13.218 5.90072 13.3087 5.76974 13.3488 5.61968C13.3945 5.4487 13.3708 5.26669 13.2827 5.11325L13.1355 4.85807C13.0465 4.70449 12.9 4.59314 12.7285 4.54728C12.5785 4.50716 12.42 4.52052 12.2797 4.58392L12.2208 4.61402C12.2144 4.61772 12.2077 4.62101 12.2012 4.62448L12.12 4.66702L12.1207 4.66767C11.8152 4.84404 11.4684 4.93654 11.1157 4.93658C10.763 4.93658 10.4162 4.84398 10.1107 4.66767L10.1087 4.66636L9.82215 4.49952C9.51703 4.32334 9.26377 4.07041 9.08736 3.7654C8.91095 3.46023 8.81748 3.11353 8.81715 2.76105V2.64ZM10.1571 2.75974L10.163 2.84742C10.1746 2.93423 10.2033 3.01843 10.2475 3.09474C10.2915 3.17102 10.35 3.23775 10.4195 3.29103L10.4941 3.34076L10.78 3.50695C10.8818 3.56568 10.9981 3.59658 11.1157 3.59658C11.2332 3.59654 11.3489 3.56571 11.4507 3.50695L11.4703 3.49582L11.5704 3.44218C12.0277 3.18503 12.5673 3.1168 13.0747 3.25243C13.5247 3.37278 13.9171 3.64508 14.1869 4.01992L14.2949 4.18676L14.4421 4.44194L14.4428 4.44259L14.5337 4.61925C14.7239 5.04004 14.7639 5.51582 14.6437 5.9658C14.507 6.47698 14.1735 6.9128 13.7172 7.18019L13.7178 7.1808L13.6079 7.24693C13.5057 7.30595 13.4207 7.39124 13.3619 7.49355C13.3031 7.59586 13.2724 7.71191 13.2729 7.82989V8.17012C13.2724 8.28811 13.3031 8.40415 13.3619 8.50646C13.4198 8.60723 13.5032 8.69091 13.6034 8.7498L13.6884 8.79563L13.7094 8.80742L13.8762 8.91536C14.2508 9.18517 14.5233 9.57712 14.6437 10.027C14.7806 10.5392 14.7087 11.0844 14.4454 11.5443L14.4461 11.545L14.2988 11.8067L14.2949 11.8132C14.028 12.274 13.589 12.61 13.0747 12.7476C12.5673 12.8832 12.0277 12.8138 11.5704 12.5565V12.5578L11.4703 12.5042C11.4638 12.5007 11.4571 12.4968 11.4507 12.4931C11.3489 12.4343 11.2332 12.4034 11.1157 12.4034C10.9981 12.4034 10.8825 12.4343 10.7807 12.4931L10.78 12.4924L10.4941 12.6593L10.4195 12.709C10.35 12.7623 10.2915 12.829 10.2475 12.9053C10.1886 13.007 10.1573 13.1228 10.1571 13.2403V13.36C10.1571 13.893 9.94576 14.4042 9.56895 14.7811C9.19201 15.1581 8.6802 15.37 8.14715 15.37H7.85268C7.31963 15.37 6.80788 15.1581 6.43092 14.7811C6.05412 14.4042 5.84271 13.893 5.84271 13.36L5.84271 13.2403L5.83682 13.1526C5.82529 13.0658 5.79653 12.9816 5.75242 12.9053C5.70829 12.829 5.64982 12.7623 5.58034 12.709L5.50575 12.6593L5.21917 12.4924C5.11736 12.4337 5.0017 12.4034 4.88417 12.4034C4.79606 12.4034 4.70922 12.421 4.62833 12.4544L4.54917 12.4931C4.54273 12.4968 4.53609 12.5007 4.52954 12.5042L4.42943 12.5578L4.42877 12.5565C3.97163 12.8136 3.43242 12.8832 2.9252 12.7476C2.47513 12.6272 2.0827 12.3549 1.81289 11.9801L1.70494 11.8132L1.55772 11.558L1.55707 11.5574C1.29108 11.0963 1.21877 10.5485 1.35619 10.0342C1.49287 9.52312 1.8258 9.08654 2.28203 8.81921L2.39195 8.75309L2.46523 8.70404C2.535 8.65044 2.59383 8.58324 2.63796 8.50646C2.69672 8.40415 2.72742 8.28811 2.72695 8.17012V7.82989L2.72106 7.74286C2.70922 7.6565 2.6801 7.57268 2.636 7.49683C2.59191 7.42112 2.53371 7.35479 2.46457 7.30187L2.39195 7.25342L2.35531 7.23058L2.2552 7.16385C1.81315 6.89517 1.4901 6.46656 1.35619 5.9658C1.21877 5.45152 1.29109 4.90371 1.55707 4.44259L1.55772 4.44129L1.70494 4.18676L1.81289 4.01992C2.0827 3.64508 2.47513 3.37278 2.9252 3.25243C3.43232 3.11685 3.97169 3.18591 4.42877 3.44283L4.42943 3.44218L4.52954 3.49582L4.54917 3.50695L4.62833 3.54555C4.70922 3.57903 4.79605 3.59655 4.88417 3.59658C4.9724 3.59658 5.05965 3.57909 5.14065 3.54555L5.21917 3.50695L5.50575 3.34076L5.58034 3.29103C5.64982 3.23775 5.70829 3.17102 5.75242 3.09474C5.81114 2.99316 5.84251 2.87772 5.84271 2.7604V2.64C5.84271 2.10703 6.05412 1.5958 6.43092 1.21887C6.80788 0.841926 7.31963 0.630005 7.85268 0.630005L8.14715 0.630005C8.6802 0.630005 9.19201 0.841926 9.56895 1.21887C9.94576 1.5958 10.1571 2.10703 10.1571 2.64V2.75974Z" fill="currentColor"/>
<path d="M9.33982 8.00001C9.33982 7.25993 8.73991 6.66001 7.99982 6.66001C7.25974 6.66001 6.65982 7.25993 6.65982 8.00001C6.65982 8.74009 7.25974 9.34001 7.99982 9.34001C8.73991 9.34001 9.33982 8.74009 9.33982 8.00001ZM10.6798 8.00001C10.6798 9.4801 9.47992 10.68 7.99982 10.68C6.5197 10.68 5.31982 9.4801 5.31982 8.00001C5.31982 6.51988 6.5197 5.32001 7.99982 5.32001C9.47992 5.32001 10.6798 6.51988 10.6798 8.00001Z" fill="currentColor"/>
</svg>
