<svg width="16" height="16" viewBox="0 0 16 16" fill="none" xmlns="http://www.w3.org/2000/svg">
<path d="M14.0299 8.00001C14.0299 4.66973 11.3302 1.97 7.99988 1.97C4.66961 1.97 1.96988 4.66973 1.96988 8.00001C1.96988 11.3303 4.66961 14.03 7.99988 14.03C11.3302 14.03 14.0299 11.3303 14.0299 8.00001ZM15.3699 8.00001C15.3699 12.0703 12.0702 15.37 7.99988 15.37C3.92955 15.37 0.629883 12.0703 0.629883 8.00001C0.629883 3.92967 3.92955 0.630005 7.99988 0.630005C12.0702 0.630005 15.3699 3.92967 15.3699 8.00001Z" fill="currentColor"/>
<path d="M7.33008 10.67L7.33008 7.99001C7.33008 7.61997 7.63004 7.32001 8.00008 7.32001C8.37012 7.32001 8.67008 7.61997 8.67008 7.99001V10.67C8.67008 11.04 8.37012 11.34 8.00008 11.34C7.63004 11.34 7.33008 11.04 7.33008 10.67Z" fill="currentColor"/>
<path d="M8.00664 4.66003L8.07532 4.6633C8.41313 4.69763 8.67664 4.98314 8.67664 5.33003C8.67664 5.67693 8.41313 5.96244 8.07532 5.99676L8.00664 6.00003H8.00008C7.63004 6.00003 7.33008 5.70006 7.33008 5.33003C7.33008 4.96001 7.63004 4.66003 8.00008 4.66003H8.00664Z" fill="currentColor"/>
</svg>
