<svg width="16" height="16" viewBox="0 0 16 16" fill="none" xmlns="http://www.w3.org/2000/svg">
<path d="M2.65494 2.655L2.65494 7.345L6.00494 7.345L6.00494 2.655L2.65494 2.655ZM7.34494 7.345C7.34494 8.08508 6.74502 8.685 6.00494 8.685H2.65494C1.91488 8.685 1.31494 8.08508 1.31494 7.345L1.31494 2.655C1.31494 1.91494 1.91488 1.315 2.65494 1.315L6.00494 1.315C6.74502 1.315 7.34494 1.91494 7.34494 2.655L7.34494 7.345Z" fill="currentColor"/>
<path d="M9.99479 2.66501V4.67501L13.3448 4.67501V2.66501L9.99479 2.66501ZM14.6848 4.67501C14.6848 5.41507 14.0849 6.01501 13.3448 6.01501L9.99479 6.01501C9.2547 6.01501 8.65479 5.41507 8.65479 4.67501V2.66501C8.65479 1.92495 9.2547 1.32501 9.99479 1.32501L13.3448 1.32501C14.0849 1.32501 14.6848 1.92495 14.6848 2.66501V4.67501Z" fill="currentColor"/>
<path d="M9.99479 8.655L9.99479 13.345H13.3448L13.3448 8.655L9.99479 8.655ZM14.6848 13.345C14.6848 14.0851 14.0849 14.685 13.3448 14.685H9.99479C9.2547 14.685 8.65479 14.0851 8.65479 13.345L8.65479 8.655C8.65479 7.91492 9.2547 7.315 9.99479 7.315L13.3448 7.315C14.0849 7.315 14.6848 7.91492 14.6848 8.655L14.6848 13.345Z" fill="currentColor"/>
<path d="M2.65494 11.325L2.65494 13.335L6.00494 13.335L6.00494 11.325L2.65494 11.325ZM7.34494 13.335C7.34494 14.0751 6.74502 14.675 6.00494 14.675H2.65494C1.91488 14.675 1.31494 14.0751 1.31494 13.335L1.31494 11.325C1.31494 10.5849 1.91488 9.98499 2.65494 9.98499L6.00494 9.98499C6.74502 9.98499 7.34494 10.5849 7.34494 11.325L7.34494 13.335Z" fill="currentColor"/>
</svg>
